<svg xmlns="http://www.w3.org/2000/svg" xmlns:xlink="http://www.w3.org/1999/xlink" width="231" zoomAndPan="magnify" viewBox="0 0 173.25 36.000001" height="48" preserveAspectRatio="xMidYMid meet" version="1.0"><defs><g/></defs><g fill="#000000" fill-opacity="1"><g transform="translate(18.095452, 23.204751)"><g><path d="M 1.1875 0 L 1.1875 -13.265625 L 5.828125 -13.265625 C 7.441406 -13.265625 8.660156 -12.957031 9.484375 -12.34375 C 10.316406 -11.726562 10.734375 -10.820312 10.734375 -9.625 C 10.734375 -8.976562 10.566406 -8.40625 10.234375 -7.90625 C 9.898438 -7.414062 9.4375 -7.054688 8.84375 -6.828125 C 9.519531 -6.648438 10.054688 -6.300781 10.453125 -5.78125 C 10.847656 -5.269531 11.046875 -4.644531 11.046875 -3.90625 C 11.046875 -2.625 10.632812 -1.65625 9.8125 -1 C 9 -0.34375 7.84375 -0.0078125 6.34375 0 Z M 3.921875 -5.78125 L 3.921875 -2.203125 L 6.265625 -2.203125 C 6.898438 -2.203125 7.398438 -2.351562 7.765625 -2.65625 C 8.128906 -2.957031 8.3125 -3.378906 8.3125 -3.921875 C 8.3125 -5.140625 7.679688 -5.757812 6.421875 -5.78125 Z M 3.921875 -7.703125 L 5.9375 -7.703125 C 7.3125 -7.734375 8 -8.285156 8 -9.359375 C 8 -9.953125 7.820312 -10.378906 7.46875 -10.640625 C 7.125 -10.910156 6.578125 -11.046875 5.828125 -11.046875 L 3.921875 -11.046875 Z M 3.921875 -7.703125 "/></g></g></g><g fill="#000000" fill-opacity="1"><g transform="translate(29.995672, 23.204751)"><g><path d="M 6.546875 -7.390625 C 6.191406 -7.429688 5.878906 -7.453125 5.609375 -7.453125 C 4.609375 -7.453125 3.953125 -7.117188 3.640625 -6.453125 L 3.640625 0 L 1.015625 0 L 1.015625 -9.859375 L 3.5 -9.859375 L 3.578125 -8.6875 C 4.097656 -9.582031 4.828125 -10.03125 5.765625 -10.03125 C 6.054688 -10.03125 6.332031 -9.992188 6.59375 -9.921875 Z M 6.546875 -7.390625 "/></g></g></g><g fill="#000000" fill-opacity="1"><g transform="translate(36.797101, 23.204751)"><g><path d="M 6.71875 0 C 6.601562 -0.238281 6.515625 -0.535156 6.453125 -0.890625 C 5.816406 -0.171875 4.988281 0.1875 3.96875 0.1875 C 3 0.1875 2.195312 -0.09375 1.5625 -0.65625 C 0.9375 -1.21875 0.625 -1.921875 0.625 -2.765625 C 0.625 -3.816406 1.007812 -4.617188 1.78125 -5.171875 C 2.550781 -5.734375 3.671875 -6.015625 5.140625 -6.015625 L 6.34375 -6.015625 L 6.34375 -6.59375 C 6.34375 -7.039062 6.222656 -7.398438 5.984375 -7.671875 C 5.753906 -7.953125 5.390625 -8.09375 4.890625 -8.09375 C 4.453125 -8.09375 4.101562 -7.984375 3.84375 -7.765625 C 3.59375 -7.554688 3.46875 -7.265625 3.46875 -6.890625 L 0.84375 -6.890625 C 0.84375 -7.460938 1.015625 -7.988281 1.359375 -8.46875 C 1.710938 -8.957031 2.210938 -9.335938 2.859375 -9.609375 C 3.503906 -9.890625 4.226562 -10.03125 5.03125 -10.03125 C 6.238281 -10.03125 7.195312 -9.722656 7.90625 -9.109375 C 8.625 -8.503906 8.984375 -7.648438 8.984375 -6.546875 L 8.984375 -2.28125 C 8.992188 -1.34375 9.125 -0.632812 9.375 -0.15625 L 9.375 0 Z M 4.546875 -1.828125 C 4.929688 -1.828125 5.285156 -1.910156 5.609375 -2.078125 C 5.941406 -2.253906 6.1875 -2.488281 6.34375 -2.78125 L 6.34375 -4.484375 L 5.359375 -4.484375 C 4.046875 -4.484375 3.347656 -4.023438 3.265625 -3.109375 L 3.25 -2.953125 C 3.25 -2.628906 3.363281 -2.359375 3.59375 -2.140625 C 3.820312 -1.929688 4.140625 -1.828125 4.546875 -1.828125 Z M 4.546875 -1.828125 "/></g></g></g><g fill="#000000" fill-opacity="1"><g transform="translate(46.794372, 23.204751)"><g><path d="M 3.4375 -9.859375 L 3.515625 -8.71875 C 4.222656 -9.59375 5.164062 -10.03125 6.34375 -10.03125 C 7.394531 -10.03125 8.175781 -9.722656 8.6875 -9.109375 C 9.195312 -8.503906 9.457031 -7.59375 9.46875 -6.375 L 9.46875 0 L 6.828125 0 L 6.828125 -6.296875 C 6.828125 -6.859375 6.707031 -7.265625 6.46875 -7.515625 C 6.226562 -7.765625 5.820312 -7.890625 5.25 -7.890625 C 4.507812 -7.890625 3.957031 -7.578125 3.59375 -6.953125 L 3.59375 0 L 0.953125 0 L 0.953125 -9.859375 Z M 3.4375 -9.859375 "/></g></g></g><g fill="#000000" fill-opacity="1"><g transform="translate(57.237794, 23.204751)"><g><path d="M 0.59375 -5 C 0.59375 -6.539062 0.9375 -7.765625 1.625 -8.671875 C 2.320312 -9.578125 3.269531 -10.03125 4.46875 -10.03125 C 5.425781 -10.03125 6.21875 -9.675781 6.84375 -8.96875 L 6.84375 -14 L 9.484375 -14 L 9.484375 0 L 7.109375 0 L 6.984375 -1.046875 C 6.328125 -0.222656 5.484375 0.1875 4.453125 0.1875 C 3.285156 0.1875 2.347656 -0.269531 1.640625 -1.1875 C 0.941406 -2.101562 0.59375 -3.375 0.59375 -5 Z M 3.234375 -4.8125 C 3.234375 -3.882812 3.394531 -3.175781 3.71875 -2.6875 C 4.039062 -2.195312 4.507812 -1.953125 5.125 -1.953125 C 5.9375 -1.953125 6.507812 -2.296875 6.84375 -2.984375 L 6.84375 -6.875 C 6.507812 -7.550781 5.941406 -7.890625 5.140625 -7.890625 C 3.867188 -7.890625 3.234375 -6.863281 3.234375 -4.8125 Z M 3.234375 -4.8125 "/></g></g></g><g fill="#000000" fill-opacity="1"><g transform="translate(67.744945, 23.204751)"><g><path d="M 0.59375 -5.015625 C 0.59375 -5.992188 0.78125 -6.863281 1.15625 -7.625 C 1.539062 -8.394531 2.085938 -8.988281 2.796875 -9.40625 C 3.503906 -9.820312 4.320312 -10.03125 5.25 -10.03125 C 6.582031 -10.03125 7.671875 -9.625 8.515625 -8.8125 C 9.359375 -8 9.828125 -6.894531 9.921875 -5.5 L 9.9375 -4.828125 C 9.9375 -3.316406 9.515625 -2.101562 8.671875 -1.1875 C 7.828125 -0.269531 6.691406 0.1875 5.265625 0.1875 C 3.847656 0.1875 2.710938 -0.265625 1.859375 -1.171875 C 1.015625 -2.085938 0.59375 -3.332031 0.59375 -4.90625 Z M 3.234375 -4.828125 C 3.234375 -3.890625 3.410156 -3.171875 3.765625 -2.671875 C 4.117188 -2.179688 4.625 -1.9375 5.28125 -1.9375 C 5.914062 -1.9375 6.410156 -2.179688 6.765625 -2.671875 C 7.128906 -3.160156 7.3125 -3.941406 7.3125 -5.015625 C 7.3125 -5.929688 7.128906 -6.640625 6.765625 -7.140625 C 6.410156 -7.648438 5.90625 -7.90625 5.25 -7.90625 C 4.613281 -7.90625 4.117188 -7.65625 3.765625 -7.15625 C 3.410156 -6.65625 3.234375 -5.878906 3.234375 -4.828125 Z M 3.234375 -4.828125 "/></g></g></g><g fill="#000000" fill-opacity="1"><g transform="translate(78.288515, 23.204751)"><g><path d="M 3.4375 -9.859375 L 3.515625 -8.71875 C 4.222656 -9.59375 5.164062 -10.03125 6.34375 -10.03125 C 7.394531 -10.03125 8.175781 -9.722656 8.6875 -9.109375 C 9.195312 -8.503906 9.457031 -7.59375 9.46875 -6.375 L 9.46875 0 L 6.828125 0 L 6.828125 -6.296875 C 6.828125 -6.859375 6.707031 -7.265625 6.46875 -7.515625 C 6.226562 -7.765625 5.820312 -7.890625 5.25 -7.890625 C 4.507812 -7.890625 3.957031 -7.578125 3.59375 -6.953125 L 3.59375 0 L 0.953125 0 L 0.953125 -9.859375 Z M 3.4375 -9.859375 "/></g></g></g><g fill="#000000" fill-opacity="1"><g transform="translate(88.731937, 23.204751)"><g/></g></g><g fill="#1784dd" fill-opacity="1"><g transform="translate(93.367516, 23.204751)"><g><path d="M 6.53125 -13.265625 L 9.265625 -13.265625 L 9.265625 -4.078125 C 9.265625 -3.234375 9.078125 -2.488281 8.703125 -1.84375 C 8.328125 -1.195312 7.800781 -0.695312 7.125 -0.34375 C 6.445312 0.0078125 5.675781 0.1875 4.8125 0.1875 C 3.414062 0.1875 2.320312 -0.164062 1.53125 -0.875 C 0.75 -1.59375 0.359375 -2.609375 0.359375 -3.921875 L 3.109375 -3.921875 C 3.109375 -3.265625 3.242188 -2.78125 3.515625 -2.46875 C 3.796875 -2.164062 4.226562 -2.015625 4.8125 -2.015625 C 5.34375 -2.015625 5.757812 -2.191406 6.0625 -2.546875 C 6.375 -2.910156 6.53125 -3.421875 6.53125 -4.078125 Z M 6.53125 -13.265625 "/></g></g></g><g fill="#1784dd" fill-opacity="1"><g transform="translate(103.783617, 23.204751)"><g><path d="M 5.546875 0.1875 C 4.097656 0.1875 2.921875 -0.253906 2.015625 -1.140625 C 1.109375 -2.035156 0.65625 -3.21875 0.65625 -4.6875 L 0.65625 -4.953125 C 0.65625 -5.941406 0.84375 -6.820312 1.21875 -7.59375 C 1.601562 -8.375 2.144531 -8.972656 2.84375 -9.390625 C 3.550781 -9.816406 4.351562 -10.03125 5.25 -10.03125 C 6.601562 -10.03125 7.664062 -9.601562 8.4375 -8.75 C 9.207031 -7.90625 9.59375 -6.703125 9.59375 -5.140625 L 9.59375 -4.078125 L 3.328125 -4.078125 C 3.410156 -3.429688 3.664062 -2.910156 4.09375 -2.515625 C 4.519531 -2.128906 5.0625 -1.9375 5.71875 -1.9375 C 6.726562 -1.9375 7.519531 -2.304688 8.09375 -3.046875 L 9.390625 -1.59375 C 8.992188 -1.03125 8.457031 -0.59375 7.78125 -0.28125 C 7.113281 0.03125 6.367188 0.1875 5.546875 0.1875 Z M 5.25 -7.90625 C 4.726562 -7.90625 4.300781 -7.726562 3.96875 -7.375 C 3.644531 -7.019531 3.441406 -6.515625 3.359375 -5.859375 L 7.015625 -5.859375 L 7.015625 -6.078125 C 7.003906 -6.660156 6.84375 -7.109375 6.53125 -7.421875 C 6.226562 -7.742188 5.800781 -7.90625 5.25 -7.90625 Z M 5.25 -7.90625 "/></g></g></g><g fill="#1784dd" fill-opacity="1"><g transform="translate(113.862839, 23.204751)"><g><path d="M 3.4375 -9.859375 L 3.515625 -8.71875 C 4.222656 -9.59375 5.164062 -10.03125 6.34375 -10.03125 C 7.394531 -10.03125 8.175781 -9.722656 8.6875 -9.109375 C 9.195312 -8.503906 9.457031 -7.59375 9.46875 -6.375 L 9.46875 0 L 6.828125 0 L 6.828125 -6.296875 C 6.828125 -6.859375 6.707031 -7.265625 6.46875 -7.515625 C 6.226562 -7.765625 5.820312 -7.890625 5.25 -7.890625 C 4.507812 -7.890625 3.957031 -7.578125 3.59375 -6.953125 L 3.59375 0 L 0.953125 0 L 0.953125 -9.859375 Z M 3.4375 -9.859375 "/></g></g></g><g fill="#1784dd" fill-opacity="1"><g transform="translate(124.306262, 23.204751)"><g><path d="M 6.34375 -2.71875 C 6.34375 -3.039062 6.179688 -3.296875 5.859375 -3.484375 C 5.546875 -3.671875 5.039062 -3.835938 4.34375 -3.984375 C 1.988281 -4.472656 0.8125 -5.46875 0.8125 -6.96875 C 0.8125 -7.84375 1.175781 -8.570312 1.90625 -9.15625 C 2.632812 -9.738281 3.582031 -10.03125 4.75 -10.03125 C 6 -10.03125 7 -9.734375 7.75 -9.140625 C 8.5 -8.554688 8.875 -7.796875 8.875 -6.859375 L 6.25 -6.859375 C 6.25 -7.234375 6.125 -7.539062 5.875 -7.78125 C 5.632812 -8.03125 5.257812 -8.15625 4.75 -8.15625 C 4.300781 -8.15625 3.957031 -8.054688 3.71875 -7.859375 C 3.476562 -7.660156 3.359375 -7.40625 3.359375 -7.09375 C 3.359375 -6.800781 3.492188 -6.566406 3.765625 -6.390625 C 4.046875 -6.210938 4.515625 -6.054688 5.171875 -5.921875 C 5.828125 -5.796875 6.378906 -5.648438 6.828125 -5.484375 C 8.210938 -4.972656 8.90625 -4.085938 8.90625 -2.828125 C 8.90625 -1.929688 8.519531 -1.203125 7.75 -0.640625 C 6.976562 -0.0859375 5.984375 0.1875 4.765625 0.1875 C 3.941406 0.1875 3.207031 0.0390625 2.5625 -0.25 C 1.925781 -0.550781 1.425781 -0.957031 1.0625 -1.46875 C 0.695312 -1.976562 0.515625 -2.535156 0.515625 -3.140625 L 3 -3.140625 C 3.03125 -2.671875 3.207031 -2.3125 3.53125 -2.0625 C 3.851562 -1.8125 4.28125 -1.6875 4.8125 -1.6875 C 5.320312 -1.6875 5.703125 -1.78125 5.953125 -1.96875 C 6.210938 -2.164062 6.34375 -2.414062 6.34375 -2.71875 Z M 6.34375 -2.71875 "/></g></g></g><g fill="#1784dd" fill-opacity="1"><g transform="translate(133.893815, 23.204751)"><g><path d="M 5.546875 0.1875 C 4.097656 0.1875 2.921875 -0.253906 2.015625 -1.140625 C 1.109375 -2.035156 0.65625 -3.21875 0.65625 -4.6875 L 0.65625 -4.953125 C 0.65625 -5.941406 0.84375 -6.820312 1.21875 -7.59375 C 1.601562 -8.375 2.144531 -8.972656 2.84375 -9.390625 C 3.550781 -9.816406 4.351562 -10.03125 5.25 -10.03125 C 6.601562 -10.03125 7.664062 -9.601562 8.4375 -8.75 C 9.207031 -7.90625 9.59375 -6.703125 9.59375 -5.140625 L 9.59375 -4.078125 L 3.328125 -4.078125 C 3.410156 -3.429688 3.664062 -2.910156 4.09375 -2.515625 C 4.519531 -2.128906 5.0625 -1.9375 5.71875 -1.9375 C 6.726562 -1.9375 7.519531 -2.304688 8.09375 -3.046875 L 9.390625 -1.59375 C 8.992188 -1.03125 8.457031 -0.59375 7.78125 -0.28125 C 7.113281 0.03125 6.367188 0.1875 5.546875 0.1875 Z M 5.25 -7.90625 C 4.726562 -7.90625 4.300781 -7.726562 3.96875 -7.375 C 3.644531 -7.019531 3.441406 -6.515625 3.359375 -5.859375 L 7.015625 -5.859375 L 7.015625 -6.078125 C 7.003906 -6.660156 6.84375 -7.109375 6.53125 -7.421875 C 6.226562 -7.742188 5.800781 -7.90625 5.25 -7.90625 Z M 5.25 -7.90625 "/></g></g></g><g fill="#1784dd" fill-opacity="1"><g transform="translate(143.973038, 23.204751)"><g><path d="M 3.4375 -9.859375 L 3.515625 -8.71875 C 4.222656 -9.59375 5.164062 -10.03125 6.34375 -10.03125 C 7.394531 -10.03125 8.175781 -9.722656 8.6875 -9.109375 C 9.195312 -8.503906 9.457031 -7.59375 9.46875 -6.375 L 9.46875 0 L 6.828125 0 L 6.828125 -6.296875 C 6.828125 -6.859375 6.707031 -7.265625 6.46875 -7.515625 C 6.226562 -7.765625 5.820312 -7.890625 5.25 -7.890625 C 4.507812 -7.890625 3.957031 -7.578125 3.59375 -6.953125 L 3.59375 0 L 0.953125 0 L 0.953125 -9.859375 Z M 3.4375 -9.859375 "/></g></g></g></svg>